Coordinates
version=1
nRows=5
nColumns=40
inDegrees=yes

Units are S.I. units (second, meters, Newtons, ...)
If the header above contains a line with 'inDegrees', this indicates whether rotational values are in degrees (yes) or radians (no).

endheader
time	pelvis_tilt	pelvis_list	pelvis_rotation	pelvis_tx	pelvis_ty	pelvis_tz	hip_flexion_r	hip_adduction_r	hip_rotation_r	knee_angle_r	knee_angle_r_beta	ankle_angle_r	subtalar_angle_r	mtp_angle_r	hip_flexion_l	hip_adduction_l	hip_rotation_l	knee_angle_l	knee_angle_l_beta	ankle_angle_l	subtalar_angle_l	mtp_angle_l	lumbar_extension	lumbar_bending	lumbar_rotation	arm_flex_r	arm_add_r	arm_rot_r	elbow_flex_r	pro_sup_r	wrist_flex_r	wrist_dev_r	arm_flex_l	arm_add_l	arm_rot_l	elbow_flex_l	pro_sup_l	wrist_flex_l	wrist_dev_l
      4.46500000	    -31.42352591	     -2.49019157	     -1.17556520	     -0.45519782	      0.68350283	     -0.93632639	     88.22608744	    -10.90277547	      2.50826455	     91.75191605	      1.60137303	     34.19917892	      0.00000000	      0.00000000	     91.06336161	    -18.95419377	      8.59455933	     90.95545684	      1.58747219	     32.00145427	      0.00000000	      0.00000000	    -18.59883920	      2.38009755	      4.06100928	     12.50997956	    -54.14145723	     78.23729350	     90.76625094	     86.56657587	      0.00000000	      0.00000000	    -15.97672612	    -48.62600299	     40.12130020	     97.77543839	     87.59731941	      0.00000000	      0.00000000
      4.47000000	    -31.46266157	     -2.40022846	     -1.18904517	     -0.45527019	      0.68349318	     -0.93629418	     88.27609812	    -10.83045197	      2.69553966	     91.73229157	      1.60103052	     34.37643797	      0.00000000	      0.00000000	     91.04960048	    -18.97280625	      8.46217565	     90.92550283	      1.58694940	     32.20225029	      0.00000000	      0.00000000	    -18.63034936	      2.22779100	      4.37709001	     10.95515286	    -54.16482252	     76.32760570	     90.78093453	     85.66499226	      0.00000000	      0.00000000	    -15.70635600	    -48.70376133	     40.20398247	     97.84087077	     87.88865990	      0.00000000	      0.00000000
      4.47500000	    -31.46754439	     -2.33460331	     -1.20889492	     -0.45533286	      0.68354642	     -0.93634031	     88.31597208	    -10.83400831	      2.76823209	     91.74094776	      1.60118160	     34.31910871	      0.00000000	      0.00000000	     91.02024320	    -18.99099672	      8.35596070	     90.92730892	      1.58698092	     32.16565400	      0.00000000	      0.00000000	    -18.69362849	      2.11684934	      4.70485997	      9.85193610	    -54.24414225	     75.17848876	     90.85967735	     84.19202862	      0.00000000	      0.00000000	    -15.29611041	    -48.80526265	     40.61668462	     97.90882097	     87.97192368	      0.00000000	      0.00000000
      4.48000000	    -31.43348933	     -2.48978012	     -1.14998294	     -0.45548431	      0.68374225	     -0.93640852	     88.22659764	    -10.88155764	      2.57276443	     91.70119334	      1.60048775	     34.16808858	      0.00000000	      0.00000000	     91.07118908	    -18.94374323	      8.54590718	     90.90060791	      1.58651490	     31.89292598	      0.00000000	      0.00000000	    -18.68022861	      2.34925211	      4.07226674	     12.51223960	    -54.13013608	     78.27763931	     90.74705617	     86.47249322	      0.00000000	      0.00000000	    -16.02423954	    -48.63118792	     40.08854686	     97.78869030	     87.62691381	      0.00000000	      0.00000000
      4.48500000	    -31.43617836	     -2.51726192	     -1.15570131	     -0.45554193	      0.68381604	     -0.93640937	     88.21000824	    -10.86392852	      2.54108432	     91.67750737	      1.60007435	     34.13338437	      0.00000000	      0.00000000	     91.08398956	    -18.93603137	      8.59877713	     90.90124822	      1.58652608	     31.92183214	      0.00000000	      0.00000000	    -18.69230406	      2.36433733	      4.36101630	     11.84557411	    -54.23357107	     77.56241515	     90.83599360	     86.19713477	      0.00000000	      0.00000000	    -15.41075678	    -48.73713459	     40.75761263	     97.72540927	     87.70279207	      0.00000000	      0.00000000
